<svg width="81" height="81" viewBox="0 0 81 81" fill="none" xmlns="http://www.w3.org/2000/svg">
<path d="M51.9838 35.0632H48.7546L50.8791 33.0092C51.5812 32.3305 51.9838 31.3811 51.9838 30.4046V29.0119C51.9838 27.0143 50.3586 25.3892 48.361 25.3892C46.3634 25.3892 44.7383 27.0143 44.7383 29.0119V30.2161H47.1468V29.0119C47.1468 28.3423 47.6915 27.7976 48.361 27.7976C49.0306 27.7976 49.5753 28.3423 49.5753 29.0119V30.4046C49.5753 30.732 49.4403 31.0501 49.205 31.2776L44.7383 35.5961V37.4717H51.9838V35.0632Z" fill="#5B65DC"/>
<path d="M59.2472 37.7018H61.6556V25.3892H59.2472V30.2262H56.8186V25.3892H54.4102V32.6347H59.2472V37.7018Z" fill="#5B65DC"/>
<path d="M54.4143 39.9003V42.3088H55.5685C54.9892 49.3652 49.3636 54.9906 42.3072 55.5702V51.9928H39.8988V55.5703C32.8425 54.9907 27.2169 49.365 26.6373 42.3088H30.2147V39.9003H26.6374C27.2169 32.8441 32.8426 27.2184 39.8989 26.6388V27.7934H42.3073V20.5522H41.1031C35.6134 20.5522 30.4523 22.6901 26.5704 26.5719C22.6886 30.4537 20.5508 35.6149 20.5508 41.1045C20.5508 46.5942 22.6886 51.7554 26.5703 55.6372C30.4522 59.5191 35.6133 61.6569 41.103 61.6569C46.5927 61.6569 51.7538 59.519 55.6357 55.6372C59.5175 51.7554 61.6552 46.5942 61.6552 41.1045V39.9003H54.4143Z" fill="#5B65DC"/>
<path d="M42.3094 38.6856V32.6455H39.9009V38.6856C39.0127 39.1286 38.4023 40.0454 38.4023 41.1053C38.4023 42.598 39.6124 43.8081 41.1051 43.8081C42.165 43.8081 43.0818 43.1977 43.5248 42.3096H49.565V39.9011H43.5248C43.2628 39.3757 42.8349 38.9477 42.3094 38.6856Z" fill="#5B65DC"/>
</svg>
